<svg viewBox="0 0 25 25" xmlns="http://www.w3.org/2000/svg">
	<path d="M12.5000746,0 C5.59654533,0 0,5.61994262 0,12.5523332 C0,18.7698776 4.50652224,23.919046 10.4153122,24.9161471 L10.4153122,15.1710899 L7.39992962,15.1710899 L7.39992962,11.6642409 L10.4153122,11.6642409 L10.4153122,9.07842644 C10.4153122,6.07813894 12.2401689,4.4431567 14.9058793,4.4431567 C16.182593,4.4431567 17.2797736,4.53868914 17.598281,4.58076534 L17.598281,7.71686462 L15.749417,7.71776304 C14.3000292,7.71776304 14.0205897,8.40925018 14.0205897,9.42431974 L14.0205897,11.6624441 L17.4789898,11.6624441 L17.0279201,15.1692931 L14.0205897,15.1692931 L14.0205897,25 C20.2052405,24.2441258 25,18.9637875 25,12.5487395 C25,5.61994262 19.4034547,0 12.5000746,0 Z"></path>
</svg>
